<?xml version="1.0" standalone="no"?>
<!DOCTYPE svg PUBLIC "-//W3C//DTD SVG 20010904//EN"
 "http://www.w3.org/TR/2001/REC-SVG-20010904/DTD/svg10.dtd">
<svg version="1.0" xmlns="http://www.w3.org/2000/svg"
 width="260.000000pt" height="260.000000pt" viewBox="0 0 260.000000 260.000000"
 preserveAspectRatio="xMidYMid meet">
<metadata>
Created by potrace 1.11, written by Peter Selinger 2001-2013
</metadata>
<g transform="translate(0.000000,260.000000) scale(0.100000,-0.100000)"
fill="#000000" stroke="none">
<path d="M46 2591 c25 -24 203 -150 230 -164 17 -9 71 -26 119 -38 99 -25 164
-63 211 -126 70 -92 127 -289 94 -328 -27 -32 -183 -4 -299 54 -96 49 -135
103 -215 296 -36 87 -88 170 -173 275 -10 12 -12 -41 -13 -254 l0 -270 90 -86
c49 -48 113 -99 142 -116 l53 -29 200 0 201 0 56 -34 c73 -44 242 -194 281
-249 29 -40 30 -43 14 -60 -15 -14 -37 -17 -145 -16 -141 1 -264 25 -351 68
-87 45 -377 291 -484 412 l-57 65 0 -995 0 -996 1300 0 1300 0 0 1300 0 1300
-990 0 -991 0 73 -61 c198 -165 402 -377 548 -569 110 -146 136 -213 147 -386
6 -111 -1 -179 -22 -208 -14 -19 -16 -18 -56 10 -89 61 -291 303 -337 402 -23
51 -24 63 -23 223 1 140 -2 175 -15 202 -29 55 -108 148 -232 270 l-119 117
-273 0 c-157 0 -270 -4 -264 -9z m1363 -586 c140 -156 267 -315 351 -440 87
-130 195 -328 210 -384 42 -160 21 -381 -35 -381 -22 0 -134 115 -203 208 -97
131 -105 156 -111 373 l-6 186 -56 109 c-75 148 -151 267 -265 420 -85 115
-90 124 -44 79 29 -27 100 -104 159 -170z m-924 -617 c186 -96 263 -110 488
-88 123 12 224 -1 284 -36 106 -62 305 -231 332 -283 14 -25 -12 -52 -67 -70
-55 -19 -256 -26 -324 -12 -144 30 -515 264 -857 540 -206 166 -210 171 -71
79 69 -46 166 -104 215 -130z m1670 -202 c26 -45 99 -169 162 -276 164 -278
170 -292 189 -431 6 -47 -9 -123 -27 -135 -27 -16 -165 117 -228 221 l-33 54
-9 193 c-5 106 -14 215 -20 243 -5 27 -34 96 -64 155 -60 115 -44 102 30 -24z
m-1039 -427 c92 -45 153 -69 175 -69 19 0 88 18 153 41 163 56 205 57 320 1
100 -48 263 -152 315 -200 28 -27 31 -35 20 -48 -58 -70 -319 -104 -436 -56
-204 84 -452 211 -618 319 -107 70 -325 222 -325 228 0 2 57 -30 128 -72 70
-41 190 -105 268 -144z m434 -419 c145 -65 302 -120 344 -120 18 0 93 21 166
46 128 44 136 46 184 35 63 -14 190 -82 194 -103 4 -18 -69 -56 -157 -82 -78
-23 -228 -21 -327 4 -100 26 -318 132 -501 244 -147 90 -191 125 -80 63 34
-19 114 -58 177 -87z"/>
</g>
</svg>
